<svg width="89" height="82" viewBox="0 0 89 82" fill="none" xmlns="http://www.w3.org/2000/svg">
<circle cx="41.7363" cy="41" r="40.4856" fill="#F5F5F5" stroke="#EBEBEB" stroke-width="1.02884"/>
<rect x="62.7363" width="26" height="26" rx="13" fill="black"/>
<path d="M71.9074 17.8052C69.7746 17.8052 68.5304 16.0913 68.5304 13.0825C68.5304 10.0991 69.8 8.35986 71.9074 8.35986C74.0148 8.35986 75.2844 10.0991 75.2844 13.0825C75.2844 16.0913 74.0275 17.8052 71.9074 17.8052ZM71.9074 16.5991C73.1515 16.5991 73.8879 15.3804 73.8879 13.0825C73.8879 10.7974 73.1388 9.54053 71.9074 9.54053C70.676 9.54053 69.9269 10.7974 69.9269 13.0825C69.9269 15.3804 70.6633 16.5991 71.9074 16.5991ZM76.3416 17.6782V16.6626L79.5281 13.4507C80.5311 12.397 81.0389 11.813 81.0389 11.0132C81.0389 10.1118 80.3026 9.52783 79.3377 9.52783C78.3221 9.52783 77.6619 10.1753 77.6619 11.1528H76.3416C76.3289 9.47705 77.6112 8.35986 79.3631 8.35986C81.1404 8.35986 82.3592 9.47705 82.3719 10.9751C82.3592 12.0034 81.8768 12.8159 80.1502 14.5171L78.284 16.4087V16.4849H82.5242V17.6782H76.3416Z" fill="white"/>
<ellipse cx="42" cy="57" rx="15" ry="6.5" stroke="#020202" stroke-width="2"/>
<path d="M56.5 34C56.5 42 46.6667 53.3333 42 58C37 53.1667 27 41.6 27 34C27 24.5 34 19 42 19C50 19 56.5 24.5 56.5 34Z" fill="#F5F5F5" stroke="#020202" stroke-width="2"/>
<rect x="34" y="25.5" width="16" height="16" rx="8" fill="#F27623"/>
<path d="M38 34L40.5 37L45.5 30.5" stroke="#F5F5F5" stroke-width="1.5" stroke-linecap="round"/>
</svg>
