<svg width="25" height="24" viewBox="0 0 25 24" fill="none" xmlns="http://www.w3.org/2000/svg">
<path d="M11.0016 18.4568C12.0728 18.4568 13.1335 18.2522 14.1232 17.8547C15.1128 17.4572 16.012 16.8746 16.7695 16.1401C17.5269 15.4056 18.1278 14.5337 18.5377 13.574C18.9476 12.6143 19.1586 11.5858 19.1586 10.547C19.1586 9.50832 18.9476 8.47976 18.5377 7.5201C18.1278 6.56044 17.5269 5.68847 16.7695 4.95398C16.012 4.21949 15.1128 3.63686 14.1232 3.23936C13.1335 2.84185 12.0728 2.63726 11.0016 2.63726C8.83828 2.63726 6.76352 3.47061 5.23379 4.95398C3.70406 6.43736 2.84467 8.44924 2.84467 10.547C2.84467 12.6449 3.70406 14.6567 5.23379 16.1401C6.76352 17.6235 8.83828 18.4568 11.0016 18.4568ZM19.5936 17.0146L24.4606 21.7341C24.5904 21.8558 24.6938 22.0014 24.765 22.1622C24.8361 22.3231 24.8735 22.4961 24.8749 22.6712C24.8764 22.8462 24.8418 23.0198 24.7734 23.1818C24.7049 23.3437 24.6038 23.4908 24.4761 23.6145C24.3484 23.7382 24.1965 23.836 24.0294 23.9022C23.8623 23.9684 23.6832 24.0016 23.5027 23.9999C23.3222 23.9983 23.1438 23.9618 22.978 23.8926C22.8122 23.8234 22.6623 23.7229 22.5369 23.5969L17.67 18.8774C15.4845 20.5224 12.7347 21.298 9.98032 21.0462C7.22593 20.7945 4.67402 19.5343 2.84406 17.5222C1.01411 15.5102 0.0436859 12.8975 0.130341 10.2161C0.216997 7.53461 1.35422 4.98597 3.3105 3.08897C5.26678 1.19197 7.89506 0.0892094 10.6603 0.00517962C13.4255 -0.0788501 16.1199 0.862167 18.1948 2.63667C20.2697 4.41117 21.5693 6.88576 21.8289 9.55668C22.0885 12.2276 21.2887 14.8941 19.5923 17.0133L19.5936 17.0146Z" fill="white"/>
</svg>
