<svg width="26" height="26" viewBox="0 0 26 26" fill="none" xmlns="http://www.w3.org/2000/svg">
<rect x="0.494141" y="0.665527" width="24.9827" height="24.9827" rx="12.4913" fill="#87A0E5"/>
<path d="M12.2297 16.5189C12.7703 16.5189 13.3056 16.4124 13.8051 16.2055C14.3046 15.9986 14.7584 15.6954 15.1407 15.3131C15.523 14.9308 15.8262 14.477 16.0331 13.9775C16.24 13.478 16.3465 12.9427 16.3465 12.402C16.3465 11.8614 16.24 11.3261 16.0331 10.8266C15.8262 10.3271 15.523 9.87329 15.1407 9.49101C14.7584 9.10873 14.3046 8.80548 13.8051 8.59859C13.3056 8.3917 12.7703 8.28522 12.2297 8.28522C11.1378 8.28522 10.0907 8.71896 9.31865 9.49101C8.54659 10.2631 8.11286 11.3102 8.11286 12.402C8.11286 13.4939 8.54659 14.541 9.31865 15.3131C10.0907 16.0851 11.1378 16.5189 12.2297 16.5189ZM16.5661 15.7682L19.0224 18.2246C19.0879 18.288 19.1402 18.3637 19.176 18.4474C19.2119 18.5312 19.2308 18.6212 19.2315 18.7123C19.2323 18.8034 19.2148 18.8938 19.1803 18.9781C19.1457 19.0624 19.0947 19.1389 19.0303 19.2033C18.9658 19.2677 18.8891 19.3186 18.8048 19.353C18.7204 19.3875 18.6301 19.4048 18.539 19.4039C18.4479 19.4031 18.3579 19.3841 18.2742 19.3481C18.1905 19.312 18.1148 19.2597 18.0516 19.1941L15.5952 16.7378C14.4922 17.594 13.1044 17.9976 11.7142 17.8666C10.3241 17.7356 9.03613 17.0797 8.11255 16.0324C7.18897 14.9852 6.6992 13.6254 6.74293 12.2298C6.78667 10.8342 7.36062 9.50766 8.34796 8.52032C9.33529 7.53299 10.6618 6.95903 12.0574 6.91529C13.453 6.87156 14.8129 7.36133 15.8601 8.28491C16.9073 9.20849 17.5632 10.4964 17.6942 11.8866C17.8253 13.2767 17.4216 14.6646 16.5654 15.7676L16.5661 15.7682Z" fill="#272727"/>
</svg>
