<svg width="84" height="80" viewBox="0 0 84 80" fill="none" xmlns="http://www.w3.org/2000/svg">
<circle cx="40" cy="40" r="39.5" fill="#F5F5F5" stroke="#EBEBEB"/>
<rect x="59" y="1" width="25" height="25" rx="12.5" fill="black"/>
<path d="M67.3369 18.1367C65.04 18.1367 63.7002 16.291 63.7002 13.0508C63.7002 9.83789 65.0674 7.96484 67.3369 7.96484C69.6064 7.96484 70.9736 9.83789 70.9736 13.0508C70.9736 16.291 69.6201 18.1367 67.3369 18.1367ZM67.3369 16.8379C68.6768 16.8379 69.4697 15.5254 69.4697 13.0508C69.4697 10.5898 68.6631 9.23633 67.3369 9.23633C66.0107 9.23633 65.2041 10.5898 65.2041 13.0508C65.2041 15.5254 65.9971 16.8379 67.3369 16.8379ZM72.5322 18V16.9062L75.9639 13.4473C77.0439 12.3125 77.5908 11.6836 77.5908 10.8223C77.5908 9.85156 76.7979 9.22266 75.7588 9.22266C74.665 9.22266 73.9541 9.91992 73.9541 10.9727H72.5322C72.5186 9.16797 73.8994 7.96484 75.7861 7.96484C77.7002 7.96484 79.0127 9.16797 79.0264 10.7812C79.0127 11.8887 78.4932 12.7637 76.6338 14.5957L74.624 16.6328V16.7148H79.1904V18H72.5322Z" fill="white"/>
<rect x="18" y="25.5" width="44" height="31" rx="4" stroke="#020202" stroke-width="2"/>
<path d="M38.4766 48.7195V44.8167H41.52V48.7195C41.52 49.1488 41.8624 49.5 42.2809 49.5H44.5635C44.982 49.5 45.3244 49.1488 45.3244 48.7195V43.2556H46.6178C46.9678 43.2556 47.1352 42.8107 46.8689 42.5766L40.5081 36.699C40.219 36.4337 39.7777 36.4337 39.4885 36.699L33.1277 42.5766C32.869 42.8107 33.0288 43.2556 33.3788 43.2556H34.6723V48.7195C34.6723 49.1488 35.0147 49.5 35.4331 49.5H37.7157C38.1342 49.5 38.4766 49.1488 38.4766 48.7195Z" fill="#F27623"/>
<line x1="17" y1="29" x2="62" y2="29" stroke="#020202" stroke-width="5"/>
<circle cx="22" cy="28.5" r="1" fill="#F5F5F5"/>
<circle cx="25" cy="28.5" r="1" fill="#F5F5F5"/>
<circle cx="28" cy="28.5" r="1" fill="#F5F5F5"/>
</svg>
