<svg width="218" height="54" viewBox="0 0 218 54" fill="none" xmlns="http://www.w3.org/2000/svg">
<path d="M121.751 3.59858C122.034 2.17434 121.109 0.79127 119.684 0.509398C118.26 0.227526 116.876 1.15359 116.593 2.57783L115.319 8.98326C115.036 10.4075 115.961 11.7906 117.385 12.0724C118.81 12.3543 120.194 11.4282 120.477 10.004L121.751 3.59858Z" fill="#F28C38"/>
<path d="M107.781 2.84458C106.972 1.63772 105.338 1.31232 104.131 2.11777C102.924 2.92322 102.601 4.55453 103.411 5.76139L107.05 11.1892C107.859 12.396 109.494 12.7214 110.7 11.916C111.907 11.1105 112.23 9.47924 111.421 8.27238L107.781 2.84458Z" fill="#F28C38"/>
<path d="M98.567 12.2789C97.1394 11.9964 95.7531 12.9193 95.4706 14.3402C95.188 15.7612 96.1163 17.1421 97.5439 17.4246L103.964 18.6953C105.392 18.9778 106.778 18.0549 107.061 16.634C107.343 15.213 106.415 13.8321 104.988 13.5495L98.567 12.2789Z" fill="#F28C38"/>
<path d="M35.0341 38.7265C34.2448 40.7376 33.1275 42.4944 31.6945 44.0209L36.1028 49.5698L30.298 54.0041L25.574 48.0917C23.4609 48.9519 21.1414 49.376 18.6033 49.376C15.2637 49.376 12.252 48.6369 9.56821 47.1588C6.88439 45.6808 4.78349 43.6454 3.26549 41.0526C1.74749 38.4599 0.982422 35.528 0.982422 32.281C0.982422 29.0341 1.74749 26.1143 3.26549 23.5216C4.78349 20.9289 6.88439 18.8813 9.56821 17.4154C12.252 15.9373 15.2637 15.1982 18.6033 15.1982C21.9429 15.1982 24.9546 15.9252 27.6384 17.4154C30.3223 18.8935 32.4232 20.9289 33.9412 23.5216C35.4592 26.1143 36.2242 29.0341 36.2242 32.281C36.2242 34.583 35.8356 36.7274 35.0463 38.7386L35.0341 38.7265ZM21.1171 42.5429L16.8789 37.1878L22.7201 32.7172L27.2013 38.3509C28.3428 36.5578 28.9257 34.5345 28.9257 32.2689C28.9257 30.2457 28.4764 28.4404 27.5899 26.8412C26.6912 25.242 25.4647 23.982 23.886 23.0854C22.3072 22.1768 20.5464 21.7285 18.6033 21.7285C16.6603 21.7285 14.8994 22.1889 13.3207 23.0854C11.742 23.982 10.5154 25.242 9.61679 26.8412C8.71813 28.4404 8.28095 30.2457 8.28095 32.2689C8.28095 34.2922 8.73028 36.0732 9.61679 37.6845C10.5154 39.2959 11.742 40.5559 13.3207 41.4525C14.8994 42.349 16.6603 42.8094 18.6033 42.8094C19.5384 42.8094 20.3763 42.7246 21.1293 42.5307L21.1171 42.5429Z" fill="#F28C38"/>
<path d="M44.3464 47.8733C42.962 47.0374 41.8812 45.8379 41.1161 44.2629C40.3511 42.6879 39.9746 40.8342 39.9746 38.714V25.1689H47.1031V37.5146C47.1031 39.3077 47.4553 40.6646 48.1596 41.6096C48.864 42.5668 49.8841 43.0271 51.2199 43.0271C52.5558 43.0271 53.7094 42.5062 54.5109 41.4764C55.3124 40.4344 55.7132 39.0048 55.7132 37.1996V25.1689H62.8417V48.576H55.7132V46.1772C54.2438 48.1399 52.0579 49.1333 49.1433 49.1333C47.3339 49.1333 45.7309 48.7093 44.3343 47.8733H44.3464Z" fill="#F28C38"/>
<path d="M74.9006 15.101C75.7264 15.9249 76.1393 16.9547 76.1393 18.2147C76.1393 19.4747 75.7264 20.5045 74.9006 21.3405C74.0748 22.1643 73.0304 22.5763 71.7796 22.5763C70.5288 22.5763 69.4844 22.1643 68.6586 21.3405C67.8328 20.5045 67.4199 19.4747 67.4199 18.2147C67.4199 16.9547 67.8328 15.9249 68.6586 15.101C69.4844 14.265 70.5288 13.8652 71.7796 13.8652C73.0304 13.8652 74.0748 14.2772 74.9006 15.101ZM75.3378 48.6487H68.2093V25.1568H75.3378V48.6487Z" fill="#F28C38"/>
<path d="M101.312 42.5425V48.576H79.2949V43.8147L90.9046 31.2024H79.8171V25.1689H100.559V29.9303L88.9494 42.5546H101.324L101.312 42.5425Z" fill="#F28C38"/>
<path d="M111.872 47.1588C109.212 45.6808 107.136 43.6454 105.63 41.0526C104.124 38.4599 103.371 35.528 103.371 32.281C103.371 29.0341 104.124 26.1143 105.63 23.5216C107.136 20.9289 109.212 18.8813 111.872 17.4154C114.531 15.9373 117.507 15.1982 120.822 15.1982C123.737 15.1982 126.347 15.7313 128.655 16.7854C130.962 17.8515 132.832 19.3175 134.278 21.1833C135.723 23.0491 136.67 25.1329 137.119 27.4591H129.748C129.347 25.8599 128.351 24.5272 126.76 23.461C125.17 22.3948 123.239 21.8617 120.98 21.8617C119.037 21.8617 117.276 22.31 115.697 23.1945C114.119 24.091 112.892 25.3268 111.993 26.9139C111.095 28.501 110.657 30.2941 110.657 32.281C110.657 34.268 111.107 36.0368 111.993 37.6361C112.892 39.2353 114.119 40.4832 115.697 41.3798C117.276 42.2642 119.037 42.7125 120.98 42.7125C122.474 42.7125 123.882 42.4096 125.206 41.828C126.53 41.2344 127.623 40.4832 128.497 39.5503C129.371 38.6174 129.894 37.6603 130.076 36.6668H137.447C137.095 38.884 136.184 40.9557 134.678 42.8942C133.185 44.8448 131.229 46.4077 128.813 47.595C126.396 48.7702 123.737 49.3639 120.822 49.3639C117.507 49.3639 114.531 48.6248 111.872 47.1467V47.1588Z" fill="#F28C38"/>
<path d="M148.568 48.5765H141.439V15.0166H148.568V48.5643V48.5765Z" fill="#F28C38"/>
<path d="M160.629 15.101C161.455 15.9249 161.868 16.9547 161.868 18.2147C161.868 19.4747 161.455 20.5045 160.629 21.3405C159.803 22.1643 158.759 22.5763 157.508 22.5763C156.257 22.5763 155.213 22.1643 154.387 21.3405C153.561 20.5045 153.148 19.4747 153.148 18.2147C153.148 16.9547 153.561 15.9249 154.387 15.101C155.213 14.265 156.257 13.8652 157.508 13.8652C158.759 13.8652 159.803 14.2772 160.629 15.101ZM161.066 48.6487H153.938V25.1568H161.066V48.6487Z" fill="#F28C38"/>
<path d="M185.281 46.673C183.168 48.3086 180.642 49.1203 177.678 49.1203C175.298 49.1203 173.161 48.5994 171.266 47.5453C169.372 46.4913 167.89 45.0253 166.822 43.1716C165.753 41.318 165.219 39.2099 165.219 36.8595C165.219 34.5091 165.753 32.4131 166.822 30.5473C167.89 28.6815 169.372 27.2277 171.266 26.1736C173.161 25.1196 175.298 24.5986 177.678 24.5986C179.682 24.5986 181.504 24.9984 183.168 25.7738C184.819 26.5613 186.191 27.6396 187.248 28.9965C188.317 30.3535 188.984 31.8558 189.252 33.5156H182.05C181.759 32.6918 181.225 32.0375 180.472 31.5408C179.707 31.0441 178.784 30.8018 177.691 30.8018C176.039 30.8018 174.703 31.3712 173.707 32.4979C172.699 33.6247 172.202 35.0906 172.202 36.8716C172.202 38.6526 172.699 40.1185 173.707 41.2453C174.703 42.372 176.039 42.9415 177.691 42.9415C178.784 42.9415 179.719 42.687 180.508 42.1782C181.297 41.6693 181.844 40.9909 182.172 40.1428H189.385C188.766 42.8566 187.406 45.0374 185.305 46.6851L185.281 46.673Z" fill="#F28C38"/>
<path d="M203.177 39.9866L200.336 43.1851V48.5765H193.207V15.0166H200.336V34.7042L208.618 25.1451H216.548L207.537 35.1283L217.021 48.5522H208.897L203.177 39.9624V39.9866Z" fill="#F28C38"/>
</svg>
